<?xml version="1.0" encoding="UTF-8"?><svg xmlns="http://www.w3.org/2000/svg" viewBox="0 0 400 113"><defs><style>.g{fill:#2378e1;}</style></defs><g id="a"/><g id="b"/><g id="c"/><g id="d"><g><path class="g" d="M63.66,55.98c6.26-3.4,11.02-9.11,11.02-18.9,0-17.32-12.42-23.62-21.9-25.9V4.1c0-.95-.85-1.8-2.23-1.8h-11.55c-1.27,0-2.23,.85-2.23,1.8v5.78h-5V4.1c0-.95-.85-1.8-2.23-1.8h-11.55c-1.27,0-2.23,.85-2.23,1.8v5.78h-3.11c-1.63,0-2.72,1.09-2.72,2.31V101.68c0,1.09,1.09,2.31,2.72,2.31h3.11v6.46c0,.85,.95,1.8,2.23,1.8h11.55c1.38,0,2.23-.95,2.23-1.8v-6.46h5v6.46c0,.85,.95,1.8,2.23,1.8h11.55c1.38,0,2.23-.95,2.23-1.8v-7.54c10.13-2.13,22.99-8.42,22.99-26.8,0,0,.68-14.01-12.1-20.13ZM30.34,29.19h11.83s11.97-.68,11.97,8.7c0,8.84-9.66,9.66-11.97,9.66h-11.83V29.19Zm11.83,55.49h-11.83v-18.63h11.83c2.58,0,13.19,0,13.19,9.52,0,7.62-8.02,9.11-13.19,9.11Z"/><path class="g" d="M154.15,10.56h-14.96c-1.63,0-2.86,1.22-2.86,2.45v60.25c0,8.43-7.75,12.51-15.5,12.51s-14.42-4.76-15.64-12.78V13c0-1.22-1.22-2.45-2.86-2.45h-14.82c-1.63,0-2.86,1.22-2.86,2.45v60.25c0,19.72,16.18,32.1,36.18,32.1s36.04-11.83,36.04-32.1V13c0-1.22-1.22-2.45-2.72-2.45Z"/><path class="g" d="M239.51,10.56h-14.96c-1.63,0-2.86,1.22-2.86,2.45v60.25c0,8.43-7.75,12.51-15.5,12.51s-14.42-4.76-15.64-12.78V13c0-1.22-1.22-2.45-2.86-2.45h-14.82c-1.63,0-2.86,1.22-2.86,2.45v60.25c0,19.72,16.18,32.1,36.18,32.1s36.04-11.83,36.04-32.1V13c0-1.22-1.22-2.45-2.72-2.45Z"/><path class="g" d="M295.23,57.75l35.63-44.06c1.63-1.9,.27-3.81-2.18-3.81h-18.63c-.41,0-1.9,.68-2.18,.82l-31.55,39.71V12.19c0-1.22-1.09-2.31-2.86-2.31h-14.82c-1.77,0-2.99,1.09-2.99,2.31V101.68c0,1.09,1.22,2.31,2.99,2.31h14.82c1.77,0,2.86-1.22,2.86-2.31v-23.94c1.63-1.63,2.58-2.86,3.94-4.62v.14c.68-.68,.82-1.09,1.36-1.63l25.57,31.42c.27,.27,1.77,.95,2.31,.95h19.45c2.45,0,3.81-1.9,2.18-3.81l-35.9-42.43Z"/><path class="g" d="M373.88,50.95c-6.8-3.13-13.6-3.13-14.28-3.13-5.3,0-10.06-3.81-10.06-9.79,0-6.8,4.49-10.06,10.06-10.06,5.03,0,9.52,2.86,9.79,8.43,0,1.22,1.36,2.31,2.86,2.31h14.69c1.63,0,2.86-1.09,2.86-2.31-.27-16.46-13.46-27.74-30.19-27.74s-30.6,11.15-30.6,29.38c0,11.42,5.85,20.67,16.05,25.57,6.94,3.13,13.74,3.13,14.55,3.13,4.49,.41,10.06,4.22,10.06,10.06s-4.76,8.98-10.06,8.98-9.79-2.86-10.06-8.7c0-1.36-1.5-2.18-2.86-2.18h-14.82c-1.77,0-2.86,.82-2.86,2.18,.27,18.09,13.6,27.88,30.6,28.29,15.64,0,30.46-10.06,30.46-28.56,0-11.29-5.71-21.08-16.18-25.84Z"/><path class="g" d="M110.27,77.49c.83,0,1.5-.67,1.5-1.5V21.77c0-.83-.67-1.5-1.5-1.5s-1.5,.67-1.5,1.5v54.22c0,.83,.67,1.5,1.5,1.5Z"/><path class="g" d="M117.27,81.49c.83,0,1.5-.67,1.5-1.5V21.77c0-.83-.67-1.5-1.5-1.5s-1.5,.67-1.5,1.5v58.22c0,.83,.67,1.5,1.5,1.5Z"/><path class="g" d="M124.27,81.49c.83,0,1.5-.67,1.5-1.5V21.77c0-.83-.67-1.5-1.5-1.5s-1.5,.67-1.5,1.5v58.22c0,.83,.67,1.5,1.5,1.5Z"/><path class="g" d="M131.27,77.49c.83,0,1.5-.67,1.5-1.5V21.77c0-.83-.67-1.5-1.5-1.5s-1.5,.67-1.5,1.5v54.22c0,.83,.67,1.5,1.5,1.5Z"/><path class="g" d="M195.62,77.49c.83,0,1.5-.67,1.5-1.5V21.77c0-.83-.67-1.5-1.5-1.5s-1.5,.67-1.5,1.5v54.22c0,.83,.67,1.5,1.5,1.5Z"/><path class="g" d="M202.62,81.49c.83,0,1.5-.67,1.5-1.5V21.77c0-.83-.67-1.5-1.5-1.5s-1.5,.67-1.5,1.5v58.22c0,.83,.67,1.5,1.5,1.5Z"/><path class="g" d="M209.62,81.49c.83,0,1.5-.67,1.5-1.5V21.77c0-.83-.67-1.5-1.5-1.5s-1.5,.67-1.5,1.5v58.22c0,.83,.67,1.5,1.5,1.5Z"/><path class="g" d="M216.62,77.49c.83,0,1.5-.67,1.5-1.5V21.77c0-.83-.67-1.5-1.5-1.5s-1.5,.67-1.5,1.5v54.22c0,.83,.67,1.5,1.5,1.5Z"/></g></g><g id="e"/><g id="f"/></svg>