<?xml version="1.0" encoding="UTF-8"?><svg xmlns="http://www.w3.org/2000/svg" viewBox="0 0 192 192"><defs><style>.g{fill:#fff;}.h{fill:#3fd092;}</style></defs><g id="a"><rect class="h" x="0" y="0" width="192" height="192" rx="64" ry="64"/><path class="g" d="M117.87,57.96l4.54-18.22-11.09-2.76-4.42,17.74c-2.92-.73-5.91-1.41-8.89-2.09l4.45-17.86-11.08-2.76-4.55,18.21c-2.41-.55-4.78-1.09-7.08-1.66v-.06l-15.28-3.82-2.95,11.85s8.23,1.89,8.05,2c4.49,1.12,5.3,4.09,5.17,6.45l-12.45,49.91c-.55,1.36-1.94,3.41-5.08,2.63,.11,.16-8.06-2.01-8.06-2.01l-5.51,12.69,14.43,3.6c2.68,.67,5.32,1.38,7.91,2.04l-4.59,18.43,11.08,2.76,4.55-18.23c3.03,.82,5.96,1.58,8.84,2.29l-4.53,18.15,11.09,2.76,4.59-18.39c18.91,3.58,33.13,2.14,39.12-14.97,4.82-13.77-.24-21.72-10.19-26.9,7.25-1.67,12.7-6.44,14.16-16.28h0c2.01-13.45-8.23-20.68-22.23-25.5Zm-3.11,61.04c-3.43,13.77-26.62,6.33-34.13,4.46l6.09-24.41c7.52,1.88,31.62,5.59,28.04,19.95Zm3.43-35.73c-3.13,12.53-22.43,6.16-28.69,4.6l5.52-22.14c6.26,1.56,26.42,4.47,23.17,17.54Z"/></g><g id="b"/><g id="c"/><g id="d"/><g id="e"/><g id="f"/></svg>