<?xml version="1.0" encoding="UTF-8"?><svg xmlns="http://www.w3.org/2000/svg" viewBox="0 0 48 48"><defs><style>.g{fill:#2378e1;}</style></defs><g id="a"/><g id="b"/><g id="c"/><g id="d"><path class="g" d="M43.07,14.22c.03,.43,.03,.85,.03,1.28,0,13.01-9.9,27.99-27.99,27.99C9.53,43.49,4.36,41.88,0,39.08c.79,.09,1.55,.12,2.38,.12,4.6,0,8.83-1.55,12.21-4.2-4.32-.09-7.95-2.92-9.2-6.82,.61,.09,1.22,.15,1.86,.15,.88,0,1.77-.12,2.59-.33-4.51-.91-7.89-4.87-7.89-9.65v-.12c1.31,.73,2.83,1.19,4.45,1.25-2.65-1.77-4.39-4.78-4.39-8.19,0-1.83,.49-3.5,1.34-4.96,4.84,5.97,12.12,9.87,20.29,10.29-.15-.73-.24-1.49-.24-2.25,0-5.42,4.39-9.84,9.84-9.84,2.83,0,5.39,1.19,7.19,3.11,2.22-.43,4.36-1.25,6.24-2.38-.73,2.29-2.29,4.2-4.33,5.42,1.98-.21,3.9-.76,5.67-1.52-1.34,1.95-3.02,3.69-4.93,5.09Z"/></g><g id="e"/><g id="f"/></svg>