<?xml version="1.0" encoding="UTF-8"?><svg xmlns="http://www.w3.org/2000/svg" viewBox="0 0 2400 1260"><defs><style>.g{fill:#adb9be;}.h{opacity:.3;}</style></defs><g id="a"/><g id="b"><g class="h"><path class="g" d="M1414.94,1003.22c-17.73,0-34.92-1.76-51.67-5.27-117.83-25.24-216.01-119.92-319.96-220.16-11.97-11.54-24.35-23.48-36.6-35.15-144.69-138.1-255.4-196.86-358.98-190.59-118.86,7.72-226.79,86.77-341.07,170.46-13.5,9.89-27.46,20.11-41.27,30.08-72.88,52.78-135.8,89.51-192.34,112.29-69.85,28.15-131.22,36.02-187.6,24.08-117.44-25.34-215.31-119.68-318.92-219.55-12.3-11.86-25.02-24.11-37.61-36.09l1.5-1.97c12.6,11.98,25.32,24.24,37.62,36.1,103.37,99.64,201.01,193.76,317.84,218.97,101.9,21.59,218.56-20.36,378.25-136,13.8-9.96,27.76-20.18,41.26-30.07,114.54-83.88,222.73-163.11,342.21-170.87,57.29-3.48,117.2,13.39,183.14,51.58,53.39,30.92,111.44,76.59,177.48,139.62,12.26,11.67,24.64,23.61,36.61,35.16,103.7,100.01,201.65,194.47,318.87,219.58,130.44,27.32,270.68-58.6,378.28-136.52,13.44-9.71,27.03-19.67,40.17-29.3,114.89-84.17,223.41-163.67,343.28-171.32,57.25-3.36,117.14,13.62,183.09,51.95,53.23,30.94,111.29,76.66,177.49,139.79l-1.5,1.97c-97.61-93.08-226.69-198.9-358.95-191.12-119.25,7.61-227.51,86.93-342.13,170.9-13.15,9.63-26.74,19.59-40.19,29.31-72.95,52.83-135.87,89.62-192.36,112.46-49.1,19.86-94.02,29.71-135.94,29.71Z"/><path class="g" d="M1420.45,988.47c-15.03,0-29.65-1.27-43.95-3.78-116.93-21.17-214.74-109.7-318.3-203.43-11.55-10.46-23.13-20.94-34.77-31.35-114.61-102.43-207.5-157-292.34-171.73-21.68-3.79-43.15-4.97-63.8-3.5-116.33,8.83-222.35,82.33-334.6,160.15-15.16,10.51-30.84,21.38-46.35,31.94-72.02,49.6-134.31,83.78-190.43,104.49-69.04,25.48-129.74,31.43-185.57,18.19-113.97-31.09-209.81-123.16-311.28-220.64-18.55-17.82-37.73-36.25-56.8-54.04l1.48-1.98c19.09,17.81,38.27,36.24,56.83,54.06,101.25,97.27,196.89,189.15,310.29,220.08,101.12,23.99,216.55-13.75,374.27-122.37,15.5-10.55,31.18-21.42,46.34-31.93,112.5-77.99,218.75-151.66,335.66-160.54,20.82-1.47,42.46-.29,64.31,3.53,85.25,14.8,178.49,69.53,293.43,172.26,11.64,10.41,23.22,20.9,34.78,31.36,103.31,93.51,200.89,181.84,317.21,202.89,88.38,15.54,189.7-16.99,318.83-102.38,17.54-11.61,35.48-24.08,54.85-38.11,11.79-8.53,23.54-17.11,35.27-25.68,115.88-84.67,225.33-164.64,345.96-172.56,57.19-3.51,116.88,12.94,182.44,50.25,53.43,30.41,111.21,75.27,176.66,137.13l-1.49,1.98c-88.99-84.13-222.89-194.98-357.47-186.78-120.01,7.88-229.22,87.67-344.83,172.14-11.73,8.57-23.48,17.16-35.27,25.69-19.39,14.05-37.36,26.54-54.93,38.17-108.78,71.94-197.99,106.49-276.43,106.49Z"/><path class="g" d="M1425.35,973.9c-12.12,0-23.97-.83-35.61-2.47-116.08-17.05-213.57-99.42-316.78-186.63-10.9-9.21-21.83-18.44-32.8-27.61-71.73-59.69-179.84-140.96-290.07-157.45-21.48-3.27-42.75-4.08-63.22-2.42-113.6,9.88-217.5,77.87-327.5,149.85-17.03,11.14-34.63,22.66-52.05,33.79-71.15,46.42-132.82,78.05-188.52,96.69-68.23,22.83-128.27,26.86-183.53,12.31-110.88-36.23-204.86-126.68-304.37-222.45-24.54-23.62-49.91-48.04-75.27-71.27l1.47-2c25.38,23.25,50.77,47.68,75.32,71.31,99.31,95.58,193.11,185.86,303.45,221.91,130.07,34.23,273.64-45.66,370.3-108.74,17.41-11.13,35.01-22.65,52.04-33.78,110.24-72.14,214.36-140.28,328.49-150.2,20.64-1.67,42.06-.85,63.7,2.44,110.76,16.58,219.21,98.08,291.15,157.95,10.98,9.18,21.91,18.41,32.81,27.62,102.96,86.99,200.22,169.16,315.68,186.13,87.11,12.32,187.1-21.53,314.67-106.5,17.32-11.56,35.12-23.98,54.41-37.96,10.03-7.26,20.04-14.55,30.02-21.83,116.98-85.27,227.47-165.82,348.99-174.02,103.64-6.58,217.3,51.58,357.61,183.04l-1.49,1.98c-139.83-131.01-252.97-188.98-355.98-182.44-120.9,8.16-231.14,88.53-347.86,173.61-9.99,7.28-20,14.57-30.03,21.84-19.31,14-37.13,26.43-54.48,38.01-111.05,73.96-201.36,109.31-280.54,109.32Z"/><path class="g" d="M1429.91,959.57c-9.13,0-18.08-.47-26.93-1.41-115.28-12.9-212.5-89.09-315.44-169.75-10.19-7.99-20.4-15.99-30.66-23.95-114.95-88.48-203.72-132.64-287.81-143.18-21.3-2.74-42.38-3.19-62.64-1.34-110.63,10.86-216.91,76.3-319.7,139.58-19.12,11.77-38.89,23.94-58.45,35.62-70.27,43.26-131.31,72.34-186.61,88.89-67.42,20.17-126.79,22.27-181.49,6.43-108.11-40.86-204.7-134.35-298.1-224.77-30.3-29.33-61.63-59.66-93.09-87.99l1.45-2.01c31.5,28.36,62.85,58.71,93.16,88.05,97.53,94.41,189.64,183.58,297.25,224.25,129.12,37.42,270.92-36.36,366.34-95.11,19.56-11.68,39.32-23.85,58.44-35.62,103-63.41,209.5-128.98,320.62-139.89,20.42-1.88,41.65-1.42,63.1,1.35,84.48,10.59,173.57,54.89,288.86,143.62,10.26,7.96,20.48,15.97,30.67,23.95,102.68,80.46,199.66,156.46,314.33,169.3,85.82,9.09,184.48-26.06,310.51-110.63,17.2-11.58,34.86-23.95,53.97-37.81,8.15-5.9,16.29-11.82,24.41-17.73,118.21-86,229.87-167.24,352.38-175.74,104.25-6.86,217.43,49.93,356.12,178.69l-1.48,1.99c-138.21-128.32-250.85-184.93-354.5-178.1-121.9,8.46-233.31,89.52-351.26,175.33-8.13,5.91-16.26,11.83-24.41,17.74-19.13,13.88-36.81,26.26-54.03,37.86-113.53,76.17-205.03,112.38-285,112.39Z"/><path class="g" d="M1434.1,945.52c-6.03,0-11.97-.21-17.87-.62-114.55-8.71-211.56-78.69-314.27-152.78-9.42-6.79-18.85-13.6-28.32-20.37-114.37-80.78-202.44-120.54-285.54-128.91-21.12-2.23-42-2.31-62.07-.26-107.38,11.76-210.94,71.53-311.08,129.33-21.48,12.4-43.7,25.22-65.67,37.42-150.19,86.83-265.91,112.77-364.16,81.63-105.62-45.05-200.58-137.77-292.4-227.43-35.85-35.01-72.92-71.21-110.35-104.36l1.44-2.03c37.47,33.2,74.56,69.42,110.43,104.44,91.67,89.52,186.47,182.08,291.61,226.93,97.56,30.92,212.74,5.03,362.38-81.49,21.98-12.2,44.18-25.01,65.66-37.41,100.34-57.92,204.1-117.8,311.93-129.61,20.22-2.07,41.24-1.98,62.5,.26,83.48,8.41,171.87,48.29,286.57,129.3,9.48,6.78,18.92,13.59,28.34,20.38,102.46,73.91,199.23,143.71,313.17,152.38,84.46,5.92,181.84-30.57,306.35-114.74,16.92-11.47,34.43-23.8,53.53-37.66,6.12-4.44,12.23-8.87,18.33-13.31,119.6-86.89,232.56-168.97,356.24-177.79,104.88-7.14,217.57,48.27,354.63,174.34l-1.47,2c-136.58-125.64-248.75-180.85-353.02-173.76-123.07,8.78-235.78,90.67-355.12,177.37-6.11,4.44-12.22,8.88-18.33,13.31-19.12,13.88-36.65,26.21-53.59,37.7-116.27,78.6-209.02,115.73-289.83,115.73Z"/><path class="g" d="M1437.88,931.77c-2.82,0-5.62-.04-8.41-.14-113.9-4.46-210.79-68.21-313.36-135.72-8.56-5.63-17.14-11.28-25.75-16.9-76.62-49.19-178.08-106.68-283.28-114.64-20.94-1.7-41.62-1.42-61.49,.83-103.81,12.56-204.3,66.74-301.49,119.14-24.17,13.03-49.16,26.5-73.87,39.17-148.16,79.99-262.63,101.58-360.21,67.94-103.38-48.87-196.83-141.12-287.21-230.34-41.22-40.69-83.84-82.76-127.09-120.5l1.42-2.04c43.31,37.78,85.96,79.88,127.2,120.59,90.24,89.08,183.55,181.19,286.47,229.85,96.88,33.39,210.81,11.84,358.43-67.86,24.72-12.66,49.7-26.13,73.85-39.16,97.36-52.49,198.04-106.77,302.25-119.38,20.01-2.26,40.83-2.54,61.89-.83,105.67,7.99,207.43,65.65,284.28,114.98,8.62,5.63,17.2,11.27,25.76,16.91,102.32,67.33,198.96,130.92,312.26,135.36,83.13,2.75,179.17-35.07,302.2-118.87,16.66-11.4,34.03-23.67,53.09-37.51l11.78-8.55c121.15-87.94,235.58-171.01,360.58-180.17,57.05-4,115.86,10.22,179.81,43.49,54.12,28.16,110.82,69.54,173.33,126.51l-1.46,2c-133.09-121.28-248.07-176.7-351.53-169.42-124.39,9.12-238.58,92-359.47,179.76l-11.77,8.55c-19.08,13.86-36.46,26.14-53.14,37.55-119.31,81.26-213.4,119.38-295.07,119.38Z"/><path class="g" d="M1442.72,918.37c-113.34-.15-210.19-57.64-312.72-118.51-7.61-4.52-15.24-9.05-22.89-13.56-76.28-43.99-177.16-95.16-281.03-100.37-20.77-1.18-41.26-.54-60.91,1.91-99.85,13.24-196.91,61.93-290.77,109.02-27.22,13.66-55.37,27.78-83.2,40.85-146.11,73.18-259.33,90.43-356.26,54.26-101.35-52.37-193.43-144.41-282.49-233.42-46.42-46.39-94.41-94.36-143.37-136.46l1.41-2.05c49.03,42.16,97.06,90.16,143.5,136.58,88.93,88.88,180.88,180.79,281.8,232.95,96.23,35.9,208.91,18.68,354.49-54.23,27.83-13.07,55.97-27.18,83.18-40.83,94.02-47.17,191.24-95.94,291.45-109.22,19.79-2.46,40.4-3.11,61.29-1.92,104.31,5.23,205.49,56.55,281.99,100.66,7.66,4.52,15.29,9.05,22.9,13.57,102.27,60.72,198.87,118.07,311.63,118.21,81.77-.47,176.48-39.55,298.05-123,16.46-11.36,33.68-23.58,52.65-37.36l4.63-3.36c122.9-89.2,238.99-173.45,365.51-182.97,104.68-7.62,219.71,46.58,351.65,165.65l-1.46,2.01c-131.46-118.64-245.95-172.63-350.04-165.08-125.91,9.48-241.76,93.55-364.4,182.56l-4.63,3.36c-18.98,13.79-36.21,26.02-52.7,37.4-121.94,83.7-217.03,122.91-299.25,123.38Z"/><path class="g" d="M174.88,914.15c-41.08,0-79.14-7.26-115.02-21.7-99.5-55.59-190.33-147.61-278.17-236.6-51.46-52.14-104.68-106.05-159.24-152.32l1.4-2.06c54.65,46.34,107.9,100.29,159.4,152.46,87.72,88.87,178.43,180.77,277.53,236.14,95.61,38.46,207.04,25.57,350.54-40.6,31.4-13.38,63.15-28.15,93.85-42.42,90.23-41.95,183.53-85.33,279.3-99.15,19.57-2.66,39.98-3.66,60.68-3.01,102.88,2.5,203.51,47.46,279.69,86.34,6.59,3.47,13.16,6.93,19.71,10.4,102.34,54.06,199,105.18,311.34,100.89,80.37-3.61,173.76-44.01,293.89-127.12,16.11-11.22,33.19-23.39,52.21-37.22,117.83-85.56,239.67-174.04,367.92-183.95,105.3-7.88,219.86,44.87,350.16,161.31l-1.44,2.02c-129.83-116.01-243.86-168.62-348.56-160.74-127.65,9.86-249.23,98.15-366.81,183.54-19.03,13.84-36.12,26.02-52.25,37.25-120.48,83.36-214.22,123.87-295.02,127.51-4.4,.16-8.8,.25-13.16,.25-107.33,0-200.66-49.3-299.26-101.39-6.55-3.46-13.12-6.93-19.7-10.39-75.96-38.77-176.31-83.61-278.78-86.1-20.59-.66-40.88,.35-60.34,2.99-95.45,13.78-188.61,57.09-278.7,98.98-30.72,14.28-62.49,29.05-93.89,42.44-90.37,41.67-168.11,62.27-237.28,62.27Z"/><path class="g" d="M211.92,918.56c-45.7,0-87.69-8.57-127.15-25.62-97.82-58.57-187.5-150.72-274.22-239.83-56.38-57.94-114.68-117.84-174.75-168.12l1.39-2.07c60.17,50.35,118.51,110.31,174.93,168.28,86.62,89.01,176.18,181.05,273.62,239.39,95.01,41.05,205.19,32.49,346.61-26.98,35.5-13.59,71.43-29.01,106.17-43.92,85.9-36.87,174.73-75,265.5-89.18,19.36-2.85,39.56-4.2,60.08-4.1h.78c101.13,0,200.91,38.47,276.61,72.02,5.39,2.48,10.75,4.95,16.1,7.42,102.55,47.35,199.4,92.08,311.48,83.37,80.01-6.82,169.37-47.3,289.74-131.25,15.81-11.1,32.74-23.22,51.77-37.07,110.47-80.27,235.68-171.25,365.7-181.57,105.96-8.19,220.02,43.15,348.67,156.96l-1.44,2.03c-128.18-113.39-241.73-164.58-347.08-156.4-129.42,10.27-254.36,101.05-364.6,181.15-19.04,13.85-35.98,25.98-51.8,37.09-120.7,84.19-210.38,124.79-290.8,131.64-9.57,.75-19.05,1.1-28.41,1.1-100.76,0-190.05-41.23-284.12-84.66-5.35-2.47-10.71-4.95-16.08-7.42-75.49-33.46-175.02-71.83-275.76-71.83h-.77c-20.42-.09-40.51,1.25-59.76,4.08-90.5,14.14-179.2,52.21-264.98,89.03-34.76,14.92-70.7,30.35-106.22,43.94-83.42,35.08-156.07,52.5-221.21,52.5Z"/><path class="g" d="M250,923.53c-50.75,0-97.01-10.04-140.31-30.08-96.29-61.34-184.91-153.74-270.6-243.11-61.17-63.79-124.42-129.75-189.92-183.88l1.38-2.08c65.61,54.22,128.91,120.23,190.13,184.07,85.6,89.27,174.11,181.57,270.04,242.68,94.46,43.69,203.39,39.47,342.68-13.34,40.25-13.64,81.02-29.74,120.44-45.3,80.93-31.95,164.61-64.99,249.74-79.32,19.13-3.04,39.14-4.79,59.47-5.19,99.2-2.81,194.73,27.57,275.08,57.7l11.95,4.71c102.94,40.58,200.17,78.91,312.14,65.6,78.5-9.93,166.58-51.69,285.59-135.38,15.35-10.87,31.66-22.6,51.33-36.92,126.74-92.17,241.58-169.27,363.48-179.19,106.67-8.49,220.2,41.43,347.19,152.61l-1.43,2.04c-126.51-110.77-239.54-160.54-345.59-152.07-121.35,9.88-235.91,86.81-362.38,178.78-19.68,14.33-36,26.06-51.36,36.94-119.32,83.91-207.7,125.78-286.57,135.76-112.48,13.36-209.96-25.05-313.16-65.73l-11.94-4.7c-80.15-30.05-175.43-60.38-274.28-57.56-20.25,.4-40.16,2.14-59.18,5.16-84.9,14.29-168.48,47.29-249.31,79.2-39.45,15.58-80.24,31.68-120.51,45.32-76.17,28.89-143.34,43.29-204.08,43.29Z"/><path class="g" d="M289.44,928.86c-56.58,0-107.35-11.47-154.84-34.93-94.89-63.91-182.53-156.68-267.29-246.39-65.85-69.7-133.94-141.77-204.8-199.63l1.37-2.09c70.98,57.96,139.12,130.09,205.02,199.84,84.67,89.62,172.21,182.29,266.76,245.98,93.94,46.39,201.62,46.5,338.75,.28,45.81-13.49,92.25-30.31,137.17-46.58,75.15-27.21,152.85-55.35,231.53-69.56,18.89-3.23,38.69-5.34,58.86-6.28,97.47-5.45,192.59,18.88,272.78,43.39l7.14,2.33c103.57,33.71,201.39,65.56,313.48,47.49,98.59-16.67,202.19-83.31,281.43-139.51,14.7-10.5,30.4-21.84,50.89-36.77,119.95-87.29,237.84-166.5,361.26-176.81,56.16-4.61,115.55,7.18,176.51,35.03,54.05,24.7,110.97,62.79,169.18,113.23l-1.42,2.05c-123.1-106.66-238.88-156.35-344.11-147.73-122.87,10.26-240.48,89.29-360.17,176.4-20.49,14.93-36.19,26.28-50.91,36.78-79.43,56.34-183.31,123.15-282.34,139.89-22.58,3.64-44.6,5.27-66.17,5.27-86,0-165.3-25.82-248.29-52.83l-7.12-2.32c-80-24.45-174.9-48.71-272.04-43.29-20.1,.93-39.82,3.04-58.61,6.25-78.5,14.17-156.12,42.28-231.18,69.46-44.94,16.28-91.42,33.11-137.25,46.61-63.9,21.54-120.58,32.75-173.25,34.27-4.14,.12-8.26,.18-12.35,.18Z"/><path class="g" d="M330.49,934.93c-62.99,0-119.63-13.48-170.98-40.5-93.61-66.33-180.36-159.54-264.25-249.67-70.43-75.67-143.25-153.92-219.4-215.39l1.35-2.1c76.28,61.57,149.16,139.89,219.65,215.62,83.81,90.05,170.47,183.16,263.75,249.28,92.16,48.47,201.72,53.05,334.82,13.92,52.36-13.09,105.53-30.73,156.95-47.79,68.36-22.68,139.04-46.14,210.27-59.87,18.62-3.41,38.22-5.89,58.26-7.36,95.54-7.96,190.33,10.22,270.46,29.07l1.46,.37c104.48,26.74,203.17,52,315.7,28.95,96.47-20.52,198.86-87.55,277.28-143.64,15.85-11.42,31.63-22.9,50.45-36.62,113.13-82.39,234.04-163.72,359.04-174.42,106.5-9,222.3,39.43,344.2,143.92l-1.41,2.05c-121.43-104.09-236.7-152.32-342.62-143.39-124.46,10.66-245.08,91.81-357.95,174.01-18.82,13.72-34.6,25.2-50.46,36.63-78.6,56.22-181.24,123.4-278.11,144.01-113,23.13-211.92-2.17-316.64-28.97l-1.43-.37c-79.95-18.81-174.54-36.96-269.8-29.02-19.97,1.47-39.49,3.94-58.03,7.33-71.08,13.71-141.7,37.14-209.99,59.8-51.45,17.07-104.66,34.73-157.06,47.82-59.68,17.55-114.66,26.33-165.51,26.33Z"/><path class="g" d="M372.97,942.04c-69.9,0-132.26-15.66-188.54-47.11C92,826.33,6.08,732.62-77.02,641.99c-74.92-81.71-152.38-166.2-233.75-231.17l1.34-2.11c81.51,65.09,159.04,149.65,234.02,231.42,83.02,90.54,168.86,184.16,260.99,252.55,91.71,51.24,199.99,60.28,330.9,27.54,60.19-12.33,121.41-30.97,180.62-49.01,60.28-18.36,122.6-37.34,185.1-50.17,18.38-3.6,37.78-6.44,57.65-8.45,93.07-10.37,183.88,.97,268.15,14.76,98.54,18.25,200.41,37.11,313.69,8.83,93.66-24.13,190.63-88.24,273.13-147.78,11.43-8.31,22.87-16.67,34.32-25.03l15.68-11.45c106.21-77.41,230.13-160.92,356.82-172.04,107.2-9.31,222.49,37.65,342.71,139.57l-1.4,2.06c-119.75-101.52-234.54-148.3-341.14-139.05-126.15,11.08-249.77,94.4-355.74,171.63l-15.68,11.45c-11.45,8.36-22.9,16.71-34.33,25.03-82.67,59.66-179.86,123.91-273.88,148.13-113.72,28.39-215.82,9.49-314.56-8.8-84.1-13.77-174.73-25.09-267.57-14.74-19.82,2.01-39.15,4.84-57.46,8.42-62.39,12.81-124.67,31.78-184.9,50.12-59.25,18.05-120.53,36.71-180.77,49.05-51.32,12.83-99.2,19.27-143.98,19.27Z"/><path class="g" d="M417.03,950.07c-77.47,0-146.08-18.14-207.68-54.65-91.36-70.74-176.52-165.01-258.88-256.17-79.32-87.8-161.34-178.59-247.87-246.97l1.34-2.11c86.69,68.5,168.78,159.37,248.17,247.24,82.29,91.09,167.38,185.27,258.46,255.8,91.29,54.1,198.29,67.59,326.99,41.18,69.67-11.11,140.68-31.1,209.36-50.43,50.52-14.21,102.75-28.92,154.87-40.28,18.31-3.81,36.97-6.93,57.04-9.53,85.35-11.95,168-8.46,265.83,.45,111.02,12.56,204.34,19.67,310.22-11.66,91.23-27.72,187.17-92.35,268.98-151.92l6.77-4.97c14.25-10.46,28.52-20.93,42.79-31.35,129.32-94.32,239.11-159.26,354.61-169.66,107.92-9.62,222.71,35.87,341.23,135.22l-1.39,2.07c-118.06-98.97-232.34-144.3-339.65-134.71-115.01,10.35-224.5,75.15-353.53,169.25-14.27,10.42-28.54,20.89-42.79,31.35l-6.78,4.97c-81.97,59.68-178.1,124.43-269.65,152.25-106.27,31.44-199.8,24.32-311.04,11.74-97.66-8.9-180.17-12.38-265.34-.46-20.03,2.6-38.63,5.71-56.88,9.51-52.05,11.35-104.25,26.04-154.74,40.25-68.74,19.34-139.81,39.35-209.56,50.47-42.57,8.74-82.8,13.12-120.87,13.12Z"/><path class="g" d="M462.81,959.12c-85.77,0-161.14-20.93-228.55-63.21-90.37-72.76-174.84-167.63-256.52-259.37-83.65-93.95-170.14-191.09-261.79-262.79l1.33-2.12c91.82,71.83,178.39,169.06,262.11,263.09,81.62,91.67,166.02,186.46,256.13,259.03,90.92,57.02,196.63,74.97,323.07,54.82,81.36-9.25,164.51-31.2,244.92-52.43,38.5-10.16,78.3-20.67,117.82-29.79,17.96-3.97,36.42-7.45,56.43-10.62,91.24-15.42,180.21-15.29,263.51-13.85,104.6,4.13,199.85,4.56,306.76-32.17,88.35-31.05,179.5-93.35,264.83-156.05,13.41-9.93,31.12-23.02,49.13-36.18,109.78-80.12,228.45-155.85,352.39-167.28,108.61-9.96,222.92,34.07,339.74,130.87l-1.38,2.08c-116.35-96.42-230.12-140.28-338.17-130.37-123.42,11.39-241.79,86.93-351.31,166.87-18,13.15-35.71,26.24-49.12,36.17-85.48,62.81-176.79,125.22-265.42,156.36-107.26,36.85-202.72,36.42-307.51,32.28-83.18-1.45-172.04-1.57-263.11,13.82-19.98,3.17-38.4,6.63-56.31,10.6-39.48,9.11-79.27,19.62-117.75,29.77-80.49,21.25-163.71,43.22-245.17,52.48-33.41,5.33-65.4,8-96.05,8Z"/><path class="g" d="M510.41,969.33c-94.85,0-177.53-24.08-251.23-72.92-89.46-74.68-173.28-170.19-254.35-262.55-87.91-100.15-178.81-203.71-275.53-278.66l1.32-2.13C-172.47,428.16-81.5,531.81,6.49,632.04c81.01,92.29,164.77,187.72,253.98,262.22,90.58,60.03,195.01,82.44,319.16,68.46,96.14-6.49,194.69-31.6,289.99-55.87,23.32-5.94,47.43-12.08,71.25-17.89,17.49-4.1,35.75-7.93,55.82-11.7,86.03-17.08,169.19-22.85,261.19-28.15,98.03-3.48,194.97-10.13,303.31-52.67,85.34-34.17,175.72-97.19,260.68-160.2,17.77-13.28,33.69-25.06,48.69-36.03,102.48-74.86,224.23-152.99,350.17-164.9,109.35-10.29,223.16,32.27,338.25,126.53l-1.37,2.08c-114.62-93.88-227.91-136.27-336.68-126.03-125.42,11.85-246.85,89.8-349.09,164.48-14.99,10.96-30.91,22.74-48.67,36.01-85.08,63.1-175.61,126.22-261.19,160.48-108.66,42.67-205.79,49.33-303.98,52.81-91.9,5.29-174.98,11.05-260.89,28.11-20.05,3.77-38.28,7.59-55.73,11.68-23.8,5.81-47.91,11.94-71.22,17.88-95.4,24.3-194.04,49.42-290.32,55.92-23.84,2.69-46.96,4.03-69.4,4.03Z"/><path class="g" d="M559.9,980.81c-104.72,0-195.28-27.62-275.8-83.92-88.62-76.51-171.86-172.68-252.36-265.69-92.1-106.41-187.33-216.44-289.08-294.55l1.31-2.13c101.94,78.26,197.25,188.39,289.43,294.88,80.44,92.94,163.62,189.04,252.02,265.37,90.29,63.13,193.44,90.01,315.25,82.1,115.4-2.43,234.08-32.96,348.84-62.48l10.9-2.81c16.65-4.13,34.7-8.31,55.21-12.79,83.25-19.03,165.12-29.94,244.3-40.5l14.57-1.94c87.29-9.78,189.63-24.31,299.85-73.18,85.92-38.73,177.46-105.14,256.52-164.34,17.16-12.94,32.94-24.68,48.25-35.88,94.57-69.14,219.59-150.08,347.95-162.52,110.11-10.63,223.41,30.47,336.76,122.18l-1.36,2.09c-112.88-91.34-225.66-132.29-335.2-121.7-127.85,12.38-252.53,93.13-346.88,162.1-15.3,11.19-31.07,22.92-48.23,35.86-79.16,59.27-170.83,125.76-256.96,164.59-110.5,49-213.03,63.55-300.45,73.35l-14.55,1.94c-79.13,10.55-160.95,21.45-244.12,40.46-20.5,4.47-38.54,8.65-55.16,12.77l-10.89,2.8c-114.88,29.55-233.68,60.11-349.28,62.54-13.86,.9-27.48,1.35-40.86,1.35Z"/><path class="g" d="M640.53,993.87c-6.28,0-12.54-.08-18.82-.24-118.18,1.92-223.42-30.47-312.7-96.24-87.85-78.26-170.55-175.12-250.52-268.79-96.23-112.71-195.74-229.26-302.47-310.49l1.3-2.14c106.93,81.38,206.53,198.03,302.85,310.84,79.92,93.61,162.57,190.4,250.21,268.49,88.8,65.42,193.58,97.69,311.35,95.75,112.18,2.91,224.35-20.61,358.25-56.81,18.51-4.85,37.18-9.53,54.61-13.87,68.6-17.78,136.45-31.81,202.07-45.38,18.26-3.78,36.42-7.54,54.47-11.35,90.51-17.21,189.04-40.47,296.39-93.69,81.47-40.96,165.86-103.07,252.37-168.48,16.8-12.79,32.44-24.48,47.81-35.73,137.61-100.68,244.24-150.07,345.73-160.14,110.89-10.99,223.69,28.65,335.27,117.83l-1.35,2.1c-111.12-88.81-223.39-128.29-333.72-117.36-101.09,10.03-207.39,59.29-344.66,159.72-15.36,11.24-30.99,22.92-47.78,35.71-86.6,65.48-171.09,127.65-252.73,168.7-107.58,53.33-206.29,76.63-296.93,93.87-18.04,3.81-36.2,7.56-54.46,11.34-65.59,13.57-133.42,27.6-201.98,45.37-17.43,4.34-36.09,9.02-54.58,13.86-126.58,34.22-233.8,57.12-339.98,57.12Z"/><path class="g" d="M694.33,1009.66c-17.51,0-34.68-.63-51.66-1.87-115.79-3.9-219.68-40.88-308.73-109.92-87.13-79.93-169.34-177.5-248.83-271.85C-15.21,506.96-118.93,383.84-230.62,299.57l1.29-2.14C-117.43,381.86-13.61,505.08,86.79,624.25c79.44,94.3,161.59,191.8,248.54,271.56,88.6,68.68,192.07,105.51,307.44,109.39,102.51,7.5,212.53-7.41,356.75-48.34l11.53-3.18c14.21-3.91,28.37-7.82,42.47-11.77,44.29-12.85,88.52-24.97,131.29-36.69,40.53-11.11,82.45-22.59,122.94-34.32,82.77-22.34,182.29-53.38,292.93-114.2,81.74-45.47,166.37-110.11,248.22-172.63,16.17-12.43,32.11-24.4,47.37-35.58,132.91-97.32,242.06-147.44,343.51-157.75,56.42-5.73,114.03,1.5,171.23,21.51,54.8,19.16,109.49,50.11,162.54,91.97l-1.34,2.11c-109.34-86.28-221.12-124.32-332.23-113.02-101.05,10.27-209.87,60.27-342.45,157.34-15.25,11.17-31.17,23.13-47.33,35.55-81.92,62.56-166.62,127.26-248.5,172.81-110.85,60.94-210.52,92.03-293.4,114.39-40.49,11.73-82.41,23.21-122.95,34.32-42.76,11.72-86.98,23.83-131.27,36.69-14.11,3.96-28.28,7.86-42.49,11.78l-11.52,3.18c-120.58,34.23-217.33,50.29-305.76,50.29Z"/><path class="g" d="M744.18,1026.71c-27.55,0-54.37-1.59-80.56-4.75-113.34-9.59-215.88-51.17-304.76-123.59-86.48-81.53-168.23-179.82-247.28-274.88C7.23,498.03-100.66,368.29-217.26,281.03l1.29-2.15C-99.15,366.31,8.84,496.15,113.27,621.73c79.01,95,160.71,193.23,247.01,274.61,88.46,72.07,190.61,113.49,303.54,123.05,105.87,12.8,222.06-.25,355.25-39.88,19.98-5.8,37.44-11.04,53.39-16.03,86.24-27.76,170.41-55.17,251.91-85.29,110.38-38.78,199.65-80.33,289.47-134.72,73.21-44.78,147.12-101.88,225.36-162.33l18.7-14.45c15.89-12.33,31.68-24.26,46.93-35.43,130.06-95.31,238.51-144.68,341.29-155.37,56.49-5.89,113.88,.78,170.57,19.81,54.87,18.42,109.28,48.47,161.71,89.32l-1.32,2.12c-106.03-82.6-220.41-120.17-330.75-108.68-102.39,10.65-210.5,59.89-340.24,154.96-15.23,11.17-31,23.08-46.88,35.4l-18.71,14.45c-78.29,60.49-152.25,117.62-225.57,162.48-89.96,54.47-179.35,96.08-289.87,134.91-81.53,30.13-165.72,57.55-251.99,85.32-15.97,5-33.44,10.24-53.43,16.04-100.52,29.91-191.41,44.71-275.48,44.71Z"/><path class="g" d="M791.64,1044.9c-36.66,0-72.38-2.93-107.07-8.79-110.83-15.16-212.04-61.34-300.79-137.26-85.88-83.07-167.21-182.1-245.86-277.87C29.6,489.09-82.42,352.69-203.9,262.48l1.28-2.15C-80.9,350.71,31.21,487.22,139.63,619.24c78.61,95.72,159.89,194.69,245.61,277.62,88.37,75.59,189.2,121.59,299.64,136.7,108.78,18.39,227.79,7.81,353.75-31.42,18.83-5.75,36.1-11.34,52.78-17.11,90.09-31.9,171.74-64.47,249.6-99.57,102.75-44.65,193.63-93.97,286.01-155.24,63.54-42.49,127.31-92.58,194.82-145.6,14.98-11.76,30.01-23.57,45.09-35.32,15.6-12.22,31.25-24.1,46.5-35.29,125.45-92,236.36-142.05,339.07-152.99,111.72-11.91,226.11,24.31,330.8,104.79l-1.31,2.13c-104.24-80.12-218.12-116.19-329.27-104.34-102.33,10.9-212.89,60.81-338.02,152.58-15.23,11.17-30.85,23.03-46.44,35.24-15.08,11.76-30.11,23.56-45.08,35.32-67.55,53.05-131.35,103.16-194.97,145.71-92.5,61.35-183.48,110.73-286.34,155.43-77.9,35.12-159.6,67.71-249.76,99.63-16.71,5.78-34,11.39-52.86,17.13-86.11,26.82-169,40.28-247.61,40.28Z"/><path class="g" d="M836.34,1064.21c-44.43,0-88.08-4.64-130.82-13.94-108.26-20.57-208.13-71.35-296.82-150.93-85.32-84.55-166.27-184.33-244.55-280.82C46.72,473.77-64.2,337.04-190.55,243.94l1.27-2.16C-62.68,335.07,53.5,478.28,165.87,616.79c78.24,96.44,159.14,196.17,244.33,280.59,88.33,79.25,187.85,129.86,295.74,150.36,112.06,24.37,230.56,16.65,352.24-22.96,17.98-5.75,35.53-11.88,52.17-18.19,81.79-31.65,165-69.95,247.29-113.84,94.21-48.93,186.63-106.42,282.54-175.77,52.46-38.17,104.75-80.2,160.12-124.69,24.71-19.86,50.27-40.4,75.63-60.39,15.39-12.18,30.89-24,46.06-35.14,122.61-90,232.79-139.26,336.85-150.61,112.56-12.29,226.43,22.43,329.31,100.44l-1.3,2.14c-102.42-77.66-215.78-112.24-327.78-100.01-103.68,11.31-213.52,60.44-335.81,150.2-15.15,11.12-30.62,22.93-45.99,35.09-25.36,19.99-50.91,40.52-75.62,60.38-55.39,44.51-107.7,86.55-160.21,124.76-96.01,69.41-188.52,126.96-282.82,175.94-82.36,43.93-165.64,82.27-247.52,113.95-16.68,6.33-34.27,12.47-52.28,18.23-75.63,24.62-150.06,36.96-222.48,36.96Z"/><path class="g" d="M876.94,1084.25c-50.63,0-100.86-6.6-150.47-19.82-105.63-25.83-204.17-81.21-292.85-164.59-84.81-85.98-165.4-186.52-243.35-283.75C68.76,464.52-46.01,321.36-177.19,225.4l1.27-2.17C-44.49,319.38,70.38,462.66,192,614.37c77.9,97.18,158.46,197.66,243.15,283.52,88.36,83.08,186.56,138.28,291.85,164.02,114.57,30.53,232.57,25.65,350.74-14.5,17.57-5.89,34.92-12.37,51.56-19.27,78.98-33.19,159.12-75.1,244.98-128.11,86.76-52.59,175.44-114.97,279.08-196.29,39.47-31.12,80.33-65.01,119.85-97.78,36.44-30.22,74.11-61.47,111.75-91.45,15.22-12.16,30.57-23.93,45.62-34.99,118.09-86.75,230.67-136.62,334.63-148.23,113.42-12.68,226.78,20.55,327.82,96.09l-1.29,2.15c-100.59-75.21-213.42-108.28-326.3-95.67-103.58,11.56-215.82,61.29-333.59,147.82-15.02,11.03-30.34,22.79-45.54,34.93-37.62,29.97-75.28,61.21-111.71,91.42-39.53,32.78-80.4,66.68-119.89,97.82-103.72,81.39-192.47,143.81-279.3,196.45-85.96,53.07-166.19,95.03-245.29,128.27-16.7,6.91-34.09,13.42-51.7,19.32-67.4,22.9-134.77,34.36-201.46,34.36Z"/><path class="g" d="M914.04,1104.84c-55.53,0-111.17-8.75-166.61-26.25-102.95-30.91-200.15-90.89-288.89-178.26-84.33-87.37-164.61-188.67-242.25-286.63C90.74,455.27-27.85,305.63-163.83,206.85l1.26-2.17C-26.33,303.65,92.36,453.42,218.02,611.98c77.6,97.91,157.84,199.16,242.07,286.42,88.45,87.08,185.34,146.87,287.95,177.68,116.53,36.8,234.03,34.76,349.24-6.05,17.27-6.06,34.41-12.91,50.95-20.35,76.29-34.65,155.67-81.23,242.69-142.38,97.85-67.99,194.23-147.76,275.6-216.82,24.01-20.44,48.67-41.78,72.51-62.42,50.38-43.61,102.48-88.7,154.92-130.96,14.96-12.08,30.16-23.8,45.18-34.84,115.26-84.74,227.09-133.81,332.41-145.84,56.97-6.52,113.47-2.13,167.93,13.05,55.09,15.35,108.38,41.83,158.4,78.69l-1.27,2.16c-100.14-73.8-209.43-104.53-324.82-91.33-104.94,11.99-216.43,60.92-331.37,145.43-14.99,11.02-30.16,22.73-45.1,34.78-52.41,42.23-104.49,87.31-154.86,130.9-23.85,20.64-48.51,41.99-72.53,62.44-81.42,69.1-177.86,148.91-275.78,216.95-87.12,61.23-166.63,107.88-243.05,142.59-16.6,7.47-33.8,14.33-51.13,20.42-60.83,21.55-122.32,32.33-183.94,32.33Z"/><path class="g" d="M948.28,1125.85c-59.41,0-119.51-11.04-179.9-33.11-100.19-35.8-196.05-100.38-284.92-191.92-83.9-88.71-163.89-190.78-241.24-289.48C112.66,446.01-9.71,289.86-150.48,188.31l1.26-2.18C-8.18,287.88,114.29,444.17,243.96,609.62c77.32,98.66,157.27,200.68,241.08,289.3,88.6,91.28,184.18,155.66,284.05,191.35,118.07,43.16,235.06,43.97,347.74,2.41,16.96-6.23,33.9-13.44,50.35-21.42,74.23-36.29,152.87-87.53,240.39-156.65,89.93-70.64,177.01-150.32,269.21-234.68l18.62-17.07c67.3-61.71,136.9-125.53,207.57-183.14,14.78-12.05,29.83-23.72,44.74-34.69,112.41-82.72,223.5-130.99,330.2-143.46,116.86-13.67,226.14,15.74,324.83,87.39l-1.26,2.17c-98.24-71.33-207.01-100.6-323.33-86.99-106.32,12.43-217.07,60.56-329.16,143.05-14.87,10.95-29.89,22.6-44.65,34.63-70.62,57.56-140.19,121.36-207.47,183.05l-18.63,17.07c-92.23,84.39-179.35,164.1-269.34,234.79-87.65,69.22-166.41,120.55-240.79,156.91-16.51,8.02-33.52,15.26-50.55,21.51-55.51,20.48-112.07,30.71-169.27,30.71Z"/><path class="g" d="M980.1,1146.92c-157.38,0-321.53-83.84-471.72-245.62-83.5-90.01-163.23-192.85-240.33-292.31C134.53,436.75,8.41,274.07-137.12,169.76l1.25-2.18C9.94,272.09,136.17,434.91,269.81,607.3c77.07,99.41,156.76,202.21,240.19,292.14,217.22,233.98,463.66,304.46,676.13,193.37,156.57-82.07,300.75-224.89,453.41-376.09,88.07-87.23,179.14-177.43,272.44-254.39,243.71-200.71,497.26-234.45,695.62-92.58l-1.25,2.18c-197.52-141.26-450.11-107.55-693,92.49-93.22,76.89-184.25,167.05-272.28,254.25-152.79,151.33-297.1,294.27-453.97,376.5-66.35,34.69-135.99,51.76-207,51.76Z"/></g></g><g id="c"/><g id="d"/><g id="e"/><g id="f"/></svg>