<?xml version="1.0" encoding="UTF-8"?><svg xmlns="http://www.w3.org/2000/svg" viewBox="0 0 400 113"><defs><style>.g{fill:#161e2e;}</style></defs><g id="a"/><g id="b"/><g id="c"><g><path class="g" d="M117.62,29.47c-3.07-2.09-6.7-3.57-10.88-4.43-4.18-.86-8.65-1.29-13.4-1.29-14.59,0-21.89,3.57-21.89,10.7,0,1.15,.2,2.21,.61,3.2,.41,.98,.86,1.87,1.35,2.64,.49,.78,.98,1.41,1.48,1.91,.49,.49,.82,.82,.98,.98,.33-.25,.9-.57,1.72-.98,.82-.41,1.91-.82,3.26-1.23,1.35-.41,2.99-.76,4.92-1.04,1.93-.29,4.16-.43,6.7-.43,5.41,0,9.28,.82,11.62,2.46,2.34,1.64,3.51,3.89,3.51,6.76-1.15-.16-2.6-.29-4.37-.37-1.76-.08-3.96-.12-6.58-.12-10.5,0-18.16,1.62-23,4.86-4.84,3.24-7.26,8.63-7.26,16.17,0,2.79,.49,5.43,1.48,7.93,.98,2.5,2.7,4.69,5.17,6.58,2.46,1.89,5.74,3.38,9.84,4.49,4.1,1.11,9.26,1.66,15.49,1.66,3.69,0,7.19-.08,10.51-.25,3.32-.17,6.27-.37,8.85-.62,2.58-.25,4.73-.47,6.46-.68,1.72-.2,2.83-.39,3.32-.55V50.69c0-5.16-.88-9.47-2.64-12.91-1.76-3.44-4.18-6.21-7.26-8.3Zm-9.9,45.81c-.57,.17-1.76,.31-3.57,.43-1.8,.12-3.77,.19-5.9,.19-2.71,0-4.88-.23-6.52-.68-1.64-.45-2.87-1-3.69-1.66-.82-.66-1.35-1.39-1.6-2.21-.25-.82-.37-1.6-.37-2.34,0-.98,.16-1.93,.49-2.83,.33-.9,.92-1.7,1.78-2.4,.86-.7,2.07-1.25,3.63-1.66,1.56-.41,3.57-.62,6.03-.62,2.87,0,5.02,.06,6.46,.18,1.43,.12,2.52,.27,3.26,.43v13.16Z"/><path class="g" d="M271.96,0c-3.12,0-5.72,1.07-7.81,3.2-2.09,2.13-3.13,4.75-3.13,7.87s1.04,5.72,3.13,7.81c2.09,2.09,4.69,3.13,7.81,3.13s5.74-1.04,7.87-3.13c2.13-2.09,3.2-4.69,3.2-7.81s-1.07-5.74-3.2-7.87c-2.13-2.13-4.76-3.2-7.87-3.2Z"/><path class="g" d="M272.46,25.48c-3.12,0-5.62,.66-7.5,1.97-1.89,1.31-2.83,3.57-2.83,6.76v51.53c.61,.33,1.91,.82,3.89,1.47,1.98,.66,4.11,.98,6.4,.98,3.17,0,5.54-.78,7.13-2.34,1.58-1.56,2.38-4.18,2.38-7.87V27.32c-.49-.16-1.64-.51-3.44-1.05-1.81-.53-3.81-.8-6.03-.8Z"/><path class="g" d="M381.49,63.72c4.71-.9,8.44-2.19,11.19-3.87,2.75-1.68,4.65-3.73,5.72-6.15,1.06-2.42,1.6-5.14,1.6-8.18,0-2.79-.64-5.49-1.91-8.12-1.27-2.62-3.12-4.96-5.53-7.01-2.42-2.05-5.39-3.67-8.92-4.86-3.53-1.19-7.5-1.78-11.93-1.78-4.76,0-9.18,.8-13.28,2.4-4.1,1.6-7.67,3.83-10.7,6.7-3.03,2.87-5.41,6.35-7.13,10.45-1.72,4.1-2.58,8.61-2.58,13.53,0,5.25,.86,9.92,2.58,14.02,1.72,4.1,4.08,7.56,7.07,10.39,2.99,2.83,6.5,4.98,10.51,6.46,4.02,1.47,8.32,2.21,12.91,2.21,3.69,0,7.07-.27,10.15-.8,3.07-.53,5.76-1.17,8.05-1.91,2.23-.72,4.09-1.43,5.58-2.15h.02c1.03-.44,1.63-.87,1.63-.87,.02-.57-.1-1.7-.34-3.38-.24-1.68-.78-3.36-1.61-5.03-1.16-2.31-2.6-3.75-4.33-4.33-1.07-.36-2.34-.3-3.79,.09-.02,0-.06-.02-.08-.02-1.39,.41-3.07,.87-4.96,1.24-1.89,.37-3.9,.55-6.03,.55-2.79,0-5.17-.25-7.13-.74-1.97-.49-3.59-1.15-4.86-1.97-1.27-.82-2.26-1.7-2.95-2.64-.7-.94-1.13-1.91-1.29-2.89h4.3c7.3,0,13.3-.45,18.02-1.35Zm-23.3-11.44c.08-1.64,.41-3.26,.98-4.86,.57-1.6,1.41-3.01,2.52-4.24,1.11-1.23,2.48-2.23,4.12-3.01,1.64-.78,3.57-1.17,5.78-1.17,3.11,0,5.45,.64,7.01,1.91,1.56,1.27,2.34,2.77,2.34,4.49,0,.82-.17,1.64-.49,2.46-.33,.82-1.23,1.56-2.7,2.21-1.48,.66-3.73,1.19-6.76,1.6-3.03,.41-7.3,.61-12.79,.61Z"/><path class="g" d="M253.58,28.8c-1.23-1.23-3.22-2.38-5.96-3.44-2.75-1.06-6.58-1.6-11.5-1.6-4.02,0-7.71,.55-11.07,1.66-3.36,1.11-6.23,2.73-8.61,4.86-2.38,2.13-4.24,4.75-5.6,7.87-1.35,3.12-2.03,6.68-2.03,10.7v36.89c.62,.33,1.91,.82,3.89,1.47,1.98,.66,4.11,.98,6.4,.98,3.17,0,5.54-.78,7.13-2.34,1.58-1.56,2.38-4.18,2.38-7.87v-24.84c0-4.18,1.09-7.17,3.26-8.98,2.17-1.8,4.81-2.71,7.93-2.71,2.38,0,4.55,.29,6.52,.86,1.97,.57,3.65,1.19,5.04,1.84,.25-.25,.61-.66,1.11-1.23,.49-.57,1-1.27,1.54-2.09,.53-.82,.98-1.76,1.35-2.83,.37-1.06,.55-2.21,.55-3.44s-.21-2.29-.61-3.2c-.41-.9-.98-1.76-1.72-2.58Z"/><path class="g" d="M192.9,32.86c-3.03-2.87-6.62-5.1-10.76-6.7-4.14-1.6-8.63-2.4-13.47-2.4-5.9,0-11.27,1.07-16.11,3.2-4.84,2.13-8.81,5.25-11.93,9.35-1.97,2.62-3.49,5.86-4.55,9.71-1.07,3.85-1.6,8.4-1.6,13.65v50.67c.61,.33,1.9,.82,3.87,1.47,1.97,.66,4.09,.98,6.36,.98,3.15,0,5.51-.78,7.08-2.34,1.57-1.56,2.36-4.18,2.36-7.87v-19.43c1.48,1.47,3.71,2.93,6.7,4.36,2.99,1.43,6.78,2.15,11.37,2.15,4.18,0,8.12-.78,11.81-2.34,3.69-1.56,6.91-3.77,9.65-6.64,2.75-2.87,4.92-6.31,6.52-10.33,1.6-4.02,2.4-8.53,2.4-13.53s-.86-9.43-2.58-13.53c-1.72-4.1-4.1-7.58-7.13-10.45Zm-14.57,34.74c-2.66,2.83-6.05,4.24-10.15,4.24-2.05,0-3.93-.39-5.66-1.17-1.72-.78-3.22-1.85-4.49-3.2-1.27-1.35-2.26-2.95-2.95-4.8-.7-1.85-1.05-3.83-1.05-5.96,0-4.59,1.33-8.2,4-10.82,2.66-2.62,6.05-3.93,10.15-3.93s7.48,1.35,10.15,4.06c2.66,2.7,4,6.27,4,10.7s-1.33,8.05-4,10.88Z"/><path class="g" d="M336.51,79.85c-.2-1.47-.65-2.99-1.36-4.58-1-2.24-2.27-3.82-3.82-4.76-1.55-.93-3.47-.89-5.76,.14l-.38,.17c-1.96,.76-4.11,1.15-6.41,1.15-1.15,0-2.28-.1-3.38-.31-1.11-.2-2.09-.63-2.95-1.29-.86-.66-1.58-1.54-2.15-2.64-.57-1.11-.86-2.6-.86-4.49v-19.31h21.89c.33-.57,.82-1.78,1.47-3.63,.66-1.85,.98-3.83,.98-5.96,0-2.95-.78-5.17-2.34-6.64-1.56-1.47-4.18-2.21-7.87-2.21h-14.14V8.88c-.49-.16-1.64-.51-3.44-1.05-1.8-.53-3.81-.8-6.03-.8-3.12,0-5.62,.66-7.5,1.97-1.89,1.31-2.83,3.57-2.83,6.76v51.77c0,6.81,2.17,12.24,6.52,16.29,4.34,4.06,10.37,6.09,18.08,6.09,2.7,0,5.29-.27,7.75-.8,2.46-.53,4.67-1.17,6.64-1.91,1.97-.74,3.65-1.52,5.04-2.34,1.39-.82,2.46-1.56,3.2-2.21h0c-.04-.41-.16-1.35-.35-2.81Z"/><path class="g" d="M59.7,40.48c.86-1.64,1.29-3.48,1.29-5.53,0-3.11-.92-5.47-2.77-7.07-1.85-1.6-4.2-2.4-7.07-2.4H2.46c-.33,.57-.82,1.78-1.48,3.63-.66,1.84-.98,3.83-.98,5.96,0,2.95,.78,5.1,2.34,6.46,1.56,1.35,4.18,2.03,7.87,2.03h23L5.66,67.66c-2.05,1.89-3.5,3.65-4.36,5.29-.86,1.64-1.29,3.48-1.29,5.53,0,3.11,.92,5.47,2.77,7.07,1.85,1.6,4.2,2.4,7.07,2.4H58.54c.33-.57,.82-1.78,1.48-3.63,.66-1.84,.98-3.83,.98-5.96,0-2.95-.78-5.1-2.34-6.46-1.56-1.35-4.18-2.03-7.87-2.03H27.79l27.55-24.1c2.05-1.89,3.5-3.65,4.36-5.29Z"/></g></g><g id="d"/><g id="e"/><g id="f"/></svg>